<svg id="Group_1" data-name="Group 1" xmlns="http://www.w3.org/2000/svg" width="1920" height="3600.123" viewBox="0 0 1920 3600.123">
  <path id="Path_1" data-name="Path 1" d="M0,0H1044.139s-1281.408,396.74,0,964.3C1664.092,1208.775,1920,652.811,1920,652.811V1800.123s-195.426,99.769-448.452,89.707c-282.616-11.24-633.786-133.373-803.854-153.753C344.986,1697.405,0,1800.123,0,1800.123Z" fill="#ffd800"/>
  <path id="Path_2" data-name="Path 2" d="M0,1800.123H1044.139s-1281.408-396.74,0-964.3C1664.092,591.348,1920,1147.312,1920,1147.312V0s-170.2,83.775-412.5,67.531C1209.443,47.551,807.2-73.239,542.24-73.239,62.24-73.239,0,0,0,0Z" transform="translate(0 1800)" fill="#34ace0"/>
</svg>
